<svg xmlns="http://www.w3.org/2000/svg" viewBox="0 0 533.07 114.62"><defs><style>.cls-1,.cls-10,.cls-11{fill:#2a4d9c;}.cls-2{fill:none;}.cls-3{fill:#2d2e83;}.cls-4{fill:#936037;}.cls-5{fill:#683c11;}.cls-6{fill:#16162f;}.cls-7{fill:#008d36;}.cls-8{font-size:80.95px;font-family:Audiowide-Regular, Audiowide;}.cls-9{letter-spacing:-0.06em;}.cls-10{letter-spacing:0em;}.cls-11{letter-spacing:-0.01em;}</style></defs><g id="Layer_2" data-name="Layer 2"><g id="Layer_1-2" data-name="Layer 1"><path class="cls-1" d="M131.7,49.2a21.59,21.59,0,0,0-1.26,4.07c-6.49.13-79.77,2.61-109.07,48a69.11,69.11,0,0,0-4.88,8.89c-.52,1.11-1.35,3-1.81,4.16H0A72,72,0,0,1,10.06,98.71a106.93,106.93,0,0,1,9-9.69C37.53,71.57,71.8,50.94,131.7,49.2Z"/><path class="cls-1" d="M130,57.7c0,.14,0,.27,0,.41h-.17c-4.79.12-64.11,2.5-86.49,47.31a75,75,0,0,0-3.75,8.93H25.47l.07-.18A55.29,55.29,0,0,1,30,105.43c9.6-15.78,36.56-47.29,100-50.68h.16A22.3,22.3,0,0,0,130,57.7Z"/><path class="cls-2" d="M63.62,114.36l-.09.26H49.06l.09-.26Z"/><path class="cls-1" d="M130.6,62.79c-1.55.11-38.42,3-58.46,33.51A69.46,69.46,0,0,0,67,105.69a73.68,73.68,0,0,0-3.33,8.67H49.15a62.6,62.6,0,0,1,3.93-8.67A85.18,85.18,0,0,1,59,96.3c10.93-15.2,32.34-34.69,71.1-37A20,20,0,0,0,130.6,62.79Z"/><path class="cls-3" d="M37,26.86H32.28a2,2,0,0,1-2-2V20.19a2,2,0,0,1,2-2H37a2,2,0,0,1,2,2v4.69A2,2,0,0,1,37,26.86Z"/><path class="cls-4" d="M52.41,26.86H47.72a2,2,0,0,1-2-2V20.19a2,2,0,0,1,2-2h4.69a2,2,0,0,1,2,2v4.69A2,2,0,0,1,52.41,26.86Z"/><path class="cls-5" d="M67.83,27H63.14a2,2,0,0,1-2-2V20.35a2,2,0,0,1,2-2h4.69a2,2,0,0,1,2,2V25A2,2,0,0,1,67.83,27Z"/><g id="Layer_2-2" data-name="Layer 2"><path class="cls-6" d="M149.4,18.25v17.4a21.93,21.93,0,0,0-8.86,3.07V19.81A10.72,10.72,0,0,0,129.82,9.09H30.08A10.72,10.72,0,0,0,19.35,19.81v56l-9.19,8.34V18.25A18.25,18.25,0,0,1,28.41,0H131.15A18.25,18.25,0,0,1,149.4,18.25Z"/><path class="cls-6" d="M149.4,79.89V96.12a18.24,18.24,0,0,1-18.24,18.24H73l3.19-8.93h53.62A10.72,10.72,0,0,0,140.54,94.7V76.82A21.93,21.93,0,0,0,149.4,79.89Z"/><path class="cls-7" d="M154.25,41.89A16,16,0,1,0,168,55.68,16,16,0,0,0,154.25,41.89Zm.41,16.24.8,8.21h-6.72l.54-8.4a5.11,5.11,0,1,1,5.38.19Z"/></g><text class="cls-8" transform="translate(183.69 86.18) scale(0.86 1)"><tspan class="cls-9">T</tspan><tspan x="54.03" y="0">rue</tspan><tspan class="cls-10" x="207.44" y="0">RD</tspan><tspan class="cls-11" x="341.04" y="0">P</tspan></text></g></g></svg>